<svg version="1.2" xmlns="http://www.w3.org/2000/svg" viewBox="0 0 1000 972" width="1000" height="972">
	<style>
		tspan { white-space:pre } 
		.s0 { fill: #1e5947 } 
		.s1 { fill: #1e785c } 
		.s2 { fill: #2c2f30 } 
		.s3 { fill: #b5a34d } 
		.s4 { fill: #cedae3 } 
		.s5 { fill: #bdcad1 } 
		.t6 { font-size: 21px;fill: #43474a;font-weight: 100;font-family: "Montserrat-Black", "Montserrat" } 
		.t7 { font-size: 10px;fill: #43474a;font-weight: 100;font-family: "Montserrat-Black", "Montserrat" } 
		.s8 { fill: #ffffff } 
	</style>
	<g id="&lt;Group&gt;">
		<g id="&lt;Group&gt;">
			<g id="&lt;Group&gt;">
				<path id="&lt;Compound Path&gt;" class="s0" d="m961.25 149.77c0-17.39 11.45-32.1 27.23-37.01 6.68-2.08 11.52-7.85 11.52-14.86v-82.17c0-8.6-6.97-15.57-15.57-15.57h-917.67c-8.59 0-15.56 6.97-15.56 15.57v940.09c0 8.6 6.97 15.57 15.56 15.57h917.67c8.6 0 15.57-6.97 15.57-15.57v-754.19c0-7-4.84-12.78-11.52-14.86-15.78-4.9-27.23-19.61-27.23-37z"/>
			</g>
		</g>
		<g id="&lt;Group&gt;">
			<g id="&lt;Group&gt;">
				<path id="&lt;Compound Path&gt;" fill-rule="evenodd" class="s1" d="m959.36 186.77c6.69 2.08 11.53 7.86 11.53 14.86v754.19c0 8.6-6.97 15.57-15.57 15.57h-940.1c-8.6 0-15.57-6.97-15.57-15.57v-940.09c0-8.6 6.97-15.57 15.57-15.57h940.1c8.6 0 15.57 6.97 15.57 15.57v82.17c0 7.01-4.84 12.78-11.53 14.86-15.77 4.91-27.22 19.62-27.22 37.01 0 17.39 11.45 32.1 27.22 37zm-10.9-154.07c0-5.59-4.52-10.11-10.11-10.11-5.59 0-10.11 4.52-10.11 10.11 0 5.58 4.52 10.1 10.11 10.1 5.59 0 10.11-4.52 10.11-10.1zm-906.17 0c0-5.59-4.51-10.11-10.1-10.11-5.59 0-10.11 4.52-10.11 10.11 0 5.58 4.52 10.1 10.11 10.1 5.59 0 10.1-4.52 10.1-10.1zm906.17 905.95c0-5.59-4.52-10.11-10.11-10.11-5.59 0-10.11 4.52-10.11 10.11 0 5.59 4.52 10.11 10.11 10.11 5.59 0 10.11-4.52 10.11-10.11z"/>
			</g>
		</g>
		<g id="&lt;Group&gt;" style="opacity: .5">
			<path id="&lt;Path&gt;" fill-rule="evenodd" class="s2" d="m266.3 687.93h437.94v112.61h-437.94z"/>
		</g>
		<g id="&lt;Group&gt;">
			<path id="&lt;Path&gt;" class="s2" d="m149.26 195.2v581.15c0 25.09 20.34 45.43 45.43 45.43h80.03c42.18 0 76.37-34.19 76.37-76.37h268.35c0 42.18 34.19 76.37 76.37 76.37h80.04c25.09 0 45.42-20.34 45.42-45.43v-581.15c0-25.09-20.33-45.43-45.42-45.43h-581.16c-25.09 0-45.43 20.34-45.43 45.43z"/>
		</g>
		<g id="&lt;Group&gt;">
			<g id="&lt;Group&gt;">
				<path id="&lt;Path&gt;" fill-rule="evenodd" class="s3" d="m452.57 913.77c-5.59 0-10.11-4.52-10.11-10.1 0-5.59 4.52-10.11 10.11-10.11 5.59 0 10.11 4.52 10.11 10.11 0 5.58-4.52 10.1-10.11 10.1z"/>
			</g>
			<g id="&lt;Group&gt;">
				<path id="&lt;Path&gt;" fill-rule="evenodd" class="s3" d="m493.48 913.77c-5.59 0-10.11-4.52-10.11-10.1 0-5.59 4.52-10.11 10.11-10.11 5.59 0 10.1 4.52 10.1 10.11 0 5.58-4.51 10.1-10.1 10.1z"/>
			</g>
			<g id="&lt;Group&gt;">
				<path id="&lt;Path&gt;" fill-rule="evenodd" class="s3" d="m534.38 913.77c-5.59 0-10.1-4.52-10.1-10.1 0-5.59 4.51-10.11 10.1-10.11 5.59 0 10.11 4.52 10.11 10.11 0 5.58-4.52 10.1-10.11 10.1z"/>
			</g>
			<g id="&lt;Group&gt;">
				<path id="&lt;Path&gt;" fill-rule="evenodd" class="s3" d="m575.29 913.77c-5.59 0-10.11-4.52-10.11-10.1 0-5.59 4.52-10.11 10.11-10.11 5.59 0 10.11 4.52 10.11 10.11 0 5.58-4.52 10.1-10.11 10.1z"/>
			</g>
			<g id="&lt;Group&gt;">
				<path id="&lt;Path&gt;" fill-rule="evenodd" class="s3" d="m616.2 913.77c-5.59 0-10.11-4.52-10.11-10.1 0-5.59 4.52-10.11 10.11-10.11 5.58 0 10.1 4.52 10.1 10.11 0 5.58-4.52 10.1-10.1 10.1z"/>
			</g>
			<g id="&lt;Group&gt;">
				<path id="&lt;Path&gt;" fill-rule="evenodd" class="s3" d="m657.1 913.77c-5.59 0-10.1-4.52-10.1-10.1 0-5.59 4.51-10.11 10.1-10.11 5.59 0 10.11 4.52 10.11 10.11 0 5.58-4.52 10.1-10.11 10.1z"/>
			</g>
			<g id="&lt;Group&gt;">
				<path id="&lt;Path&gt;" fill-rule="evenodd" class="s3" d="m698.01 913.77c-5.59 0-10.11-4.52-10.11-10.1 0-5.59 4.52-10.11 10.11-10.11 5.59 0 10.1 4.52 10.1 10.11 0 5.58-4.51 10.1-10.1 10.1z"/>
			</g>
			<g id="&lt;Group&gt;">
				<path id="&lt;Path&gt;" fill-rule="evenodd" class="s3" d="m738.91 913.77c-5.59 0-10.1-4.52-10.1-10.1 0-5.59 4.51-10.11 10.1-10.11 5.59 0 10.11 4.52 10.11 10.11 0 5.58-4.52 10.1-10.11 10.1z"/>
			</g>
			<g id="&lt;Group&gt;">
				<path id="&lt;Path&gt;" fill-rule="evenodd" class="s3" d="m779.82 913.77c-5.59 0-10.11-4.52-10.11-10.1 0-5.59 4.52-10.11 10.11-10.11 5.59 0 10.11 4.52 10.11 10.11 0 5.58-4.52 10.1-10.11 10.1z"/>
			</g>
			<g id="&lt;Group&gt;">
				<path id="&lt;Path&gt;" fill-rule="evenodd" class="s3" d="m820.73 913.77c-5.59 0-10.11-4.52-10.11-10.1 0-5.59 4.52-10.11 10.11-10.11 5.58 0 10.1 4.52 10.1 10.11 0 5.58-4.52 10.1-10.1 10.1z"/>
			</g>
			<g id="&lt;Group&gt;">
				<path id="&lt;Path&gt;" fill-rule="evenodd" class="s3" d="m473.02 948.76c-5.59 0-10.1-4.52-10.1-10.11 0-5.59 4.51-10.11 10.1-10.11 5.59 0 10.11 4.52 10.11 10.11 0 5.59-4.52 10.11-10.11 10.11z"/>
			</g>
			<g id="&lt;Group&gt;">
				<path id="&lt;Path&gt;" fill-rule="evenodd" class="s3" d="m513.93 948.76c-5.59 0-10.11-4.52-10.11-10.11 0-5.59 4.52-10.11 10.11-10.11 5.59 0 10.11 4.52 10.11 10.11 0 5.59-4.52 10.11-10.11 10.11z"/>
			</g>
			<g id="&lt;Group&gt;">
				<path id="&lt;Path&gt;" fill-rule="evenodd" class="s3" d="m554.84 948.76c-5.59 0-10.11-4.52-10.11-10.11 0-5.59 4.52-10.11 10.11-10.11 5.58 0 10.1 4.52 10.1 10.11 0 5.59-4.52 10.11-10.1 10.11z"/>
			</g>
			<g id="&lt;Group&gt;">
				<path id="&lt;Path&gt;" fill-rule="evenodd" class="s3" d="m595.74 948.76c-5.59 0-10.1-4.52-10.1-10.11 0-5.59 4.51-10.11 10.1-10.11 5.59 0 10.11 4.52 10.11 10.11 0 5.59-4.52 10.11-10.11 10.11z"/>
			</g>
			<g id="&lt;Group&gt;">
				<path id="&lt;Path&gt;" fill-rule="evenodd" class="s3" d="m636.65 948.76c-5.59 0-10.11-4.52-10.11-10.11 0-5.59 4.52-10.11 10.11-10.11 5.59 0 10.1 4.52 10.1 10.11 0 5.59-4.51 10.11-10.1 10.11z"/>
			</g>
			<g id="&lt;Group&gt;">
				<path id="&lt;Path&gt;" fill-rule="evenodd" class="s3" d="m677.55 948.76c-5.58 0-10.1-4.52-10.1-10.11 0-5.59 4.52-10.11 10.1-10.11 5.59 0 10.11 4.52 10.11 10.11 0 5.59-4.52 10.11-10.11 10.11z"/>
			</g>
			<g id="&lt;Group&gt;">
				<path id="&lt;Path&gt;" fill-rule="evenodd" class="s3" d="m718.46 948.76c-5.59 0-10.11-4.52-10.11-10.11 0-5.59 4.52-10.11 10.11-10.11 5.59 0 10.11 4.52 10.11 10.11 0 5.59-4.52 10.11-10.11 10.11z"/>
			</g>
			<g id="&lt;Group&gt;">
				<path id="&lt;Path&gt;" fill-rule="evenodd" class="s3" d="m759.37 948.76c-5.59 0-10.11-4.52-10.11-10.11 0-5.59 4.52-10.11 10.11-10.11 5.59 0 10.1 4.52 10.1 10.11 0 5.59-4.51 10.11-10.1 10.11z"/>
			</g>
			<g id="&lt;Group&gt;">
				<path id="&lt;Path&gt;" fill-rule="evenodd" class="s3" d="m800.27 948.76c-5.59 0-10.1-4.52-10.1-10.11 0-5.59 4.51-10.11 10.1-10.11 5.59 0 10.11 4.52 10.11 10.11 0 5.59-4.52 10.11-10.11 10.11z"/>
			</g>
			<g id="&lt;Group&gt;">
				<path id="&lt;Path&gt;" fill-rule="evenodd" class="s3" d="m841.18 948.76c-5.59 0-10.11-4.52-10.11-10.11 0-5.59 4.52-10.11 10.11-10.11 5.59 0 10.11 4.52 10.11 10.11 0 5.59-4.52 10.11-10.11 10.11z"/>
			</g>
		</g>
		<g id="&lt;Group&gt;">
			<g id="&lt;Group&gt;">
				<path id="&lt;Path&gt;" fill-rule="evenodd" class="s3" d="m903.36 462.95c-5.58 0-10.1-4.52-10.1-10.11 0-5.59 4.52-10.1 10.1-10.1 5.59 0 10.11 4.51 10.11 10.1 0 5.59-4.52 10.11-10.11 10.11z"/>
			</g>
			<g id="&lt;Group&gt;">
				<path id="&lt;Path&gt;" fill-rule="evenodd" class="s3" d="m903.36 503.85c-5.58 0-10.1-4.51-10.1-10.1 0-5.59 4.52-10.11 10.1-10.11 5.59 0 10.11 4.52 10.11 10.11 0 5.59-4.52 10.1-10.11 10.1z"/>
			</g>
			<g id="&lt;Group&gt;">
				<path id="&lt;Path&gt;" fill-rule="evenodd" class="s3" d="m903.36 544.76c-5.58 0-10.1-4.52-10.1-10.11 0-5.58 4.52-10.1 10.1-10.1 5.59 0 10.11 4.52 10.11 10.1 0 5.59-4.52 10.11-10.11 10.11z"/>
			</g>
			<g id="&lt;Group&gt;">
				<path id="&lt;Path&gt;" fill-rule="evenodd" class="s3" d="m903.36 585.67c-5.58 0-10.1-4.52-10.1-10.11 0-5.59 4.52-10.11 10.1-10.11 5.59 0 10.11 4.52 10.11 10.11 0 5.59-4.52 10.11-10.11 10.11z"/>
			</g>
			<g id="&lt;Group&gt;">
				<path id="&lt;Path&gt;" fill-rule="evenodd" class="s3" d="m903.36 626.57c-5.58 0-10.1-4.51-10.1-10.1 0-5.59 4.52-10.11 10.1-10.11 5.59 0 10.11 4.52 10.11 10.11 0 5.59-4.52 10.1-10.11 10.1z"/>
			</g>
			<g id="&lt;Group&gt;">
				<path id="&lt;Path&gt;" fill-rule="evenodd" class="s3" d="m903.36 667.48c-5.58 0-10.1-4.52-10.1-10.11 0-5.59 4.52-10.1 10.1-10.1 5.59 0 10.11 4.51 10.11 10.1 0 5.59-4.52 10.11-10.11 10.11z"/>
			</g>
			<g id="&lt;Group&gt;">
				<path id="&lt;Path&gt;" fill-rule="evenodd" class="s3" d="m903.36 708.39c-5.58 0-10.1-4.52-10.1-10.11 0-5.59 4.52-10.11 10.1-10.11 5.59 0 10.11 4.52 10.11 10.11 0 5.59-4.52 10.11-10.11 10.11z"/>
			</g>
			<g id="&lt;Group&gt;">
				<path id="&lt;Path&gt;" fill-rule="evenodd" class="s3" d="m903.36 749.29c-5.58 0-10.1-4.52-10.1-10.1 0-5.59 4.52-10.11 10.1-10.11 5.59 0 10.11 4.52 10.11 10.11 0 5.58-4.52 10.1-10.11 10.1z"/>
			</g>
			<g id="&lt;Group&gt;">
				<path id="&lt;Path&gt;" fill-rule="evenodd" class="s3" d="m903.36 790.2c-5.58 0-10.1-4.52-10.1-10.11 0-5.59 4.52-10.11 10.1-10.11 5.59 0 10.11 4.52 10.11 10.11 0 5.59-4.52 10.11-10.11 10.11z"/>
			</g>
			<g id="&lt;Group&gt;">
				<path id="&lt;Path&gt;" fill-rule="evenodd" class="s3" d="m903.36 831.1c-5.58 0-10.1-4.51-10.1-10.1 0-5.59 4.52-10.11 10.1-10.11 5.59 0 10.11 4.52 10.11 10.11 0 5.59-4.52 10.1-10.11 10.1z"/>
			</g>
			<g id="&lt;Group&gt;">
				<path id="&lt;Path&gt;" fill-rule="evenodd" class="s3" d="m938.35 483.4c-5.59 0-10.11-4.52-10.11-10.1 0-5.59 4.52-10.11 10.11-10.11 5.59 0 10.1 4.52 10.1 10.11 0 5.58-4.51 10.1-10.1 10.1z"/>
			</g>
			<g id="&lt;Group&gt;">
				<path id="&lt;Path&gt;" fill-rule="evenodd" class="s3" d="m938.35 524.31c-5.59 0-10.11-4.52-10.11-10.11 0-5.59 4.52-10.11 10.11-10.11 5.59 0 10.1 4.52 10.1 10.11 0 5.59-4.51 10.11-10.1 10.11z"/>
			</g>
			<g id="&lt;Group&gt;">
				<path id="&lt;Path&gt;" fill-rule="evenodd" class="s3" d="m938.35 565.21c-5.59 0-10.11-4.51-10.11-10.1 0-5.59 4.52-10.11 10.11-10.11 5.59 0 10.1 4.52 10.1 10.11 0 5.59-4.51 10.1-10.1 10.1z"/>
			</g>
			<g id="&lt;Group&gt;">
				<path id="&lt;Path&gt;" fill-rule="evenodd" class="s3" d="m938.35 606.12c-5.59 0-10.11-4.52-10.11-10.11 0-5.59 4.52-10.1 10.11-10.1 5.59 0 10.1 4.51 10.1 10.1 0 5.59-4.51 10.11-10.1 10.11z"/>
			</g>
			<g id="&lt;Group&gt;">
				<path id="&lt;Path&gt;" fill-rule="evenodd" class="s3" d="m938.35 647.03c-5.59 0-10.11-4.52-10.11-10.11 0-5.59 4.52-10.11 10.11-10.11 5.59 0 10.1 4.52 10.1 10.11 0 5.59-4.51 10.11-10.1 10.11z"/>
			</g>
			<g id="&lt;Group&gt;">
				<path id="&lt;Path&gt;" fill-rule="evenodd" class="s3" d="m938.35 687.93c-5.59 0-10.11-4.52-10.11-10.1 0-5.59 4.52-10.11 10.11-10.11 5.59 0 10.1 4.52 10.1 10.11 0 5.58-4.51 10.1-10.1 10.1z"/>
			</g>
			<g id="&lt;Group&gt;">
				<path id="&lt;Path&gt;" fill-rule="evenodd" class="s3" d="m938.35 728.84c-5.59 0-10.11-4.52-10.11-10.11 0-5.59 4.52-10.1 10.11-10.1 5.59 0 10.1 4.51 10.1 10.1 0 5.59-4.51 10.11-10.1 10.11z"/>
			</g>
			<g id="&lt;Group&gt;">
				<path id="&lt;Path&gt;" fill-rule="evenodd" class="s3" d="m938.35 769.74c-5.59 0-10.11-4.51-10.11-10.1 0-5.59 4.52-10.11 10.11-10.11 5.59 0 10.1 4.52 10.1 10.11 0 5.59-4.51 10.1-10.1 10.1z"/>
			</g>
			<g id="&lt;Group&gt;">
				<path id="&lt;Path&gt;" fill-rule="evenodd" class="s3" d="m938.35 810.65c-5.59 0-10.11-4.52-10.11-10.11 0-5.58 4.52-10.1 10.11-10.1 5.59 0 10.1 4.52 10.1 10.1 0 5.59-4.51 10.11-10.1 10.11z"/>
			</g>
			<g id="&lt;Group&gt;">
				<path id="&lt;Path&gt;" fill-rule="evenodd" class="s3" d="m938.35 851.56c-5.59 0-10.11-4.52-10.11-10.11 0-5.59 4.52-10.11 10.11-10.11 5.59 0 10.1 4.52 10.1 10.11 0 5.59-4.51 10.11-10.1 10.11z"/>
			</g>
		</g>
		<g id="&lt;Group&gt;">
			<g id="&lt;Group&gt;">
				<path id="&lt;Path&gt;" fill-rule="evenodd" class="s3" d="m140.58 913.77c-5.59 0-10.11-4.52-10.11-10.1 0-5.59 4.52-10.11 10.11-10.11 5.59 0 10.11 4.52 10.11 10.11 0 5.58-4.52 10.1-10.11 10.1z"/>
			</g>
			<g id="&lt;Group&gt;">
				<path id="&lt;Path&gt;" fill-rule="evenodd" class="s3" d="m181.49 913.77c-5.59 0-10.11-4.52-10.11-10.1 0-5.59 4.52-10.11 10.11-10.11 5.59 0 10.1 4.52 10.1 10.11 0 5.58-4.51 10.1-10.1 10.1z"/>
			</g>
			<g id="&lt;Group&gt;">
				<path id="&lt;Path&gt;" fill-rule="evenodd" class="s3" d="m222.39 913.77c-5.59 0-10.1-4.52-10.1-10.1 0-5.59 4.51-10.11 10.1-10.11 5.59 0 10.11 4.52 10.11 10.11 0 5.58-4.52 10.1-10.11 10.1z"/>
			</g>
			<g id="&lt;Group&gt;">
				<path id="&lt;Path&gt;" fill-rule="evenodd" class="s3" d="m161.03 948.76c-5.58 0-10.1-4.52-10.1-10.11 0-5.59 4.52-10.11 10.1-10.11 5.59 0 10.11 4.52 10.11 10.11 0 5.59-4.52 10.11-10.11 10.11z"/>
			</g>
			<g id="&lt;Group&gt;">
				<path id="&lt;Path&gt;" fill-rule="evenodd" class="s3" d="m201.94 948.76c-5.59 0-10.11-4.52-10.11-10.11 0-5.59 4.52-10.11 10.11-10.11 5.59 0 10.11 4.52 10.11 10.11 0 5.59-4.52 10.11-10.11 10.11z"/>
			</g>
			<g id="&lt;Group&gt;">
				<path id="&lt;Path&gt;" fill-rule="evenodd" class="s3" d="m242.85 948.76c-5.59 0-10.11-4.52-10.11-10.11 0-5.59 4.52-10.11 10.11-10.11 5.59 0 10.1 4.52 10.1 10.11 0 5.59-4.51 10.11-10.1 10.11z"/>
			</g>
		</g>
		<g id="&lt;Group&gt;">
			<g id="&lt;Group&gt;">
				<path id="&lt;Path&gt;" fill-rule="evenodd" class="s3" d="m32.7 820.12c-5.59 0-10.11-4.52-10.11-10.11 0-5.59 4.52-10.11 10.11-10.11 5.59 0 10.1 4.52 10.1 10.11 0 5.59-4.51 10.11-10.1 10.11z"/>
			</g>
			<g id="&lt;Group&gt;">
				<path id="&lt;Path&gt;" fill-rule="evenodd" class="s3" d="m32.7 779.21c-5.59 0-10.11-4.52-10.11-10.11 0-5.59 4.52-10.1 10.11-10.1 5.59 0 10.1 4.51 10.1 10.1 0 5.59-4.51 10.11-10.1 10.11z"/>
			</g>
			<g id="&lt;Group&gt;">
				<path id="&lt;Path&gt;" fill-rule="evenodd" class="s3" d="m32.7 738.3c-5.59 0-10.11-4.51-10.11-10.1 0-5.59 4.52-10.11 10.11-10.11 5.59 0 10.1 4.52 10.1 10.11 0 5.59-4.51 10.1-10.1 10.1z"/>
			</g>
			<g id="&lt;Group&gt;">
				<path id="&lt;Path&gt;" fill-rule="evenodd" class="s3" d="m67.68 840.57c-5.59 0-10.11-4.52-10.11-10.11 0-5.59 4.52-10.1 10.11-10.1 5.59 0 10.11 4.51 10.11 10.1 0 5.59-4.52 10.11-10.11 10.11z"/>
			</g>
			<g id="&lt;Group&gt;">
				<path id="&lt;Path&gt;" fill-rule="evenodd" class="s3" d="m67.68 799.66c-5.59 0-10.11-4.51-10.11-10.1 0-5.59 4.52-10.11 10.11-10.11 5.59 0 10.11 4.52 10.11 10.11 0 5.59-4.52 10.1-10.11 10.1z"/>
			</g>
			<g id="&lt;Group&gt;">
				<path id="&lt;Path&gt;" fill-rule="evenodd" class="s3" d="m67.68 758.76c-5.59 0-10.11-4.52-10.11-10.11 0-5.59 4.52-10.11 10.11-10.11 5.59 0 10.11 4.52 10.11 10.11 0 5.59-4.52 10.11-10.11 10.11z"/>
			</g>
		</g>
		<g id="&lt;Group&gt;">
			<g id="&lt;Group&gt;">
				<path id="&lt;Path&gt;" fill-rule="evenodd" class="s3" d="m106.85 42.8c-5.59 0-10.11-4.52-10.11-10.1 0-5.59 4.52-10.11 10.11-10.11 5.59 0 10.1 4.52 10.1 10.11 0 5.58-4.51 10.1-10.1 10.1z"/>
			</g>
			<g id="&lt;Group&gt;">
				<path id="&lt;Path&gt;" fill-rule="evenodd" class="s3" d="m147.75 42.8c-5.58 0-10.1-4.52-10.1-10.1 0-5.59 4.52-10.11 10.1-10.11 5.59 0 10.11 4.52 10.11 10.11 0 5.58-4.52 10.1-10.11 10.1z"/>
			</g>
			<g id="&lt;Group&gt;">
				<path id="&lt;Path&gt;" fill-rule="evenodd" class="s3" d="m86.39 77.79c-5.58 0-10.1-4.52-10.1-10.11 0-5.59 4.52-10.11 10.1-10.11 5.59 0 10.11 4.52 10.11 10.11 0 5.59-4.52 10.11-10.11 10.11z"/>
			</g>
			<g id="&lt;Group&gt;">
				<path id="&lt;Path&gt;" fill-rule="evenodd" class="s3" d="m127.3 77.79c-5.59 0-10.11-4.52-10.11-10.11 0-5.59 4.52-10.11 10.11-10.11 5.59 0 10.11 4.52 10.11 10.11 0 5.59-4.52 10.11-10.11 10.11z"/>
			</g>
		</g>
		<g id="&lt;Group&gt;">
			<g id="&lt;Group&gt;">
				<path id="&lt;Path&gt;" fill-rule="evenodd" class="s3" d="m822.67 42.8c-5.59 0-10.1-4.52-10.1-10.1 0-5.59 4.51-10.11 10.1-10.11 5.59 0 10.11 4.52 10.11 10.11 0 5.58-4.52 10.1-10.11 10.1z"/>
			</g>
			<g id="&lt;Group&gt;">
				<path id="&lt;Path&gt;" fill-rule="evenodd" class="s3" d="m863.58 42.8c-5.59 0-10.11-4.52-10.11-10.1 0-5.59 4.52-10.11 10.11-10.11 5.59 0 10.11 4.52 10.11 10.11 0 5.58-4.52 10.1-10.11 10.1z"/>
			</g>
			<g id="&lt;Group&gt;">
				<path id="&lt;Path&gt;" fill-rule="evenodd" class="s3" d="m802.22 77.79c-5.59 0-10.11-4.52-10.11-10.11 0-5.59 4.52-10.11 10.11-10.11 5.59 0 10.11 4.52 10.11 10.11 0 5.59-4.52 10.11-10.11 10.11z"/>
			</g>
			<g id="&lt;Group&gt;">
				<path id="&lt;Path&gt;" fill-rule="evenodd" class="s3" d="m843.13 77.79c-5.59 0-10.11-4.52-10.11-10.11 0-5.59 4.52-10.11 10.11-10.11 5.59 0 10.1 4.52 10.1 10.11 0 5.59-4.51 10.11-10.1 10.11z"/>
			</g>
		</g>
		<g id="&lt;Group&gt;">
			<g id="&lt;Group&gt;">
				<path id="&lt;Path&gt;" fill-rule="evenodd" class="s3" d="m686.06 42.8c-5.59 0-10.11-4.52-10.11-10.1 0-5.59 4.52-10.11 10.11-10.11 5.59 0 10.11 4.52 10.11 10.11 0 5.58-4.52 10.1-10.11 10.1z"/>
			</g>
			<g id="&lt;Group&gt;">
				<path id="&lt;Path&gt;" fill-rule="evenodd" class="s3" d="m726.96 42.8c-5.58 0-10.1-4.52-10.1-10.1 0-5.59 4.52-10.11 10.1-10.11 5.59 0 10.11 4.52 10.11 10.11 0 5.58-4.52 10.1-10.11 10.1z"/>
			</g>
			<g id="&lt;Group&gt;">
				<path id="&lt;Path&gt;" fill-rule="evenodd" class="s3" d="m665.61 77.79c-5.59 0-10.11-4.52-10.11-10.11 0-5.59 4.52-10.11 10.11-10.11 5.58 0 10.1 4.52 10.1 10.11 0 5.59-4.52 10.11-10.1 10.11z"/>
			</g>
			<g id="&lt;Group&gt;">
				<path id="&lt;Path&gt;" fill-rule="evenodd" class="s3" d="m706.51 77.79c-5.59 0-10.1-4.52-10.1-10.11 0-5.59 4.51-10.11 10.1-10.11 5.59 0 10.11 4.52 10.11 10.11 0 5.59-4.52 10.11-10.11 10.11z"/>
			</g>
		</g>
		<g id="&lt;Group&gt;">
			<g id="&lt;Group&gt;">
				<path id="&lt;Path&gt;" fill-rule="evenodd" class="s3" d="m549.44 42.8c-5.59 0-10.1-4.52-10.1-10.1 0-5.59 4.51-10.11 10.1-10.11 5.59 0 10.11 4.52 10.11 10.11 0 5.58-4.52 10.1-10.11 10.1z"/>
			</g>
			<g id="&lt;Group&gt;">
				<path id="&lt;Path&gt;" fill-rule="evenodd" class="s3" d="m590.35 42.8c-5.59 0-10.11-4.52-10.11-10.1 0-5.59 4.52-10.11 10.11-10.11 5.59 0 10.11 4.52 10.11 10.11 0 5.58-4.52 10.1-10.11 10.1z"/>
			</g>
			<g id="&lt;Group&gt;">
				<path id="&lt;Path&gt;" fill-rule="evenodd" class="s3" d="m528.99 77.79c-5.59 0-10.11-4.52-10.11-10.11 0-5.59 4.52-10.11 10.11-10.11 5.59 0 10.11 4.52 10.11 10.11 0 5.59-4.52 10.11-10.11 10.11z"/>
			</g>
			<g id="&lt;Group&gt;">
				<path id="&lt;Path&gt;" fill-rule="evenodd" class="s3" d="m569.9 77.79c-5.59 0-10.11-4.52-10.11-10.11 0-5.59 4.52-10.11 10.11-10.11 5.59 0 10.1 4.52 10.1 10.11 0 5.59-4.51 10.11-10.1 10.11z"/>
			</g>
		</g>
		<g id="&lt;Group&gt;">
			<g id="&lt;Group&gt;">
				<path id="&lt;Path&gt;" fill-rule="evenodd" class="s3" d="m412.83 42.8c-5.59 0-10.11-4.52-10.11-10.1 0-5.59 4.52-10.11 10.11-10.11 5.59 0 10.11 4.52 10.11 10.11 0 5.58-4.52 10.1-10.11 10.1z"/>
			</g>
			<g id="&lt;Group&gt;">
				<path id="&lt;Path&gt;" fill-rule="evenodd" class="s3" d="m453.74 42.8c-5.59 0-10.11-4.52-10.11-10.1 0-5.59 4.52-10.11 10.11-10.11 5.58 0 10.1 4.52 10.1 10.11 0 5.58-4.52 10.1-10.1 10.1z"/>
			</g>
			<g id="&lt;Group&gt;">
				<path id="&lt;Path&gt;" fill-rule="evenodd" class="s3" d="m392.38 77.79c-5.59 0-10.11-4.52-10.11-10.11 0-5.59 4.52-10.11 10.11-10.11 5.59 0 10.1 4.52 10.1 10.11 0 5.59-4.51 10.11-10.1 10.11z"/>
			</g>
			<g id="&lt;Group&gt;">
				<path id="&lt;Path&gt;" fill-rule="evenodd" class="s3" d="m433.28 77.79c-5.59 0-10.1-4.52-10.1-10.11 0-5.59 4.51-10.11 10.1-10.11 5.59 0 10.11 4.52 10.11 10.11 0 5.59-4.52 10.11-10.11 10.11z"/>
			</g>
		</g>
		<path id="&lt;Path&gt;" class="s3" d="m22.59 840.57v107.88h107.88z"/>
		<g id="&lt;Group&gt;">
			<g id="&lt;Group&gt;">
				<path id="&lt;Path&gt;" class="s4" d="m744.92 271.56v428.39c0 25.11-20.32 45.43-45.43 45.43h-428.47c-25.03 0-45.35-20.32-45.35-45.43v-428.39c0-25.11 20.32-45.44 45.35-45.44h428.47c1.57 0 3.14 0.08 4.63 0.23 1.27 0.15 2.47 0.3 3.67 0.52 0.07 0 0.14 0 0.22 0.08 0.75 0.07 1.49 0.29 2.24 0.44 0.97 0.23 2.02 0.53 2.99 0.83 1.12 0.37 2.24 0.82 3.36 1.27 3.96 1.56 7.62 3.73 10.91 6.35 0.68 0.52 1.27 1.04 1.87 1.57 1.12 0.97 2.17 1.94 3.14 2.99 0.3 0.29 0.6 0.59 0.82 0.89 0.67 0.75 1.35 1.57 1.94 2.39 0.45 0.53 0.9 1.05 1.2 1.57 0.52 0.68 0.97 1.35 1.42 2.09 0.37 0.45 0.67 0.98 0.9 1.5q0.78 1.23 1.34 2.47c0.37 0.67 0.67 1.41 0.97 2.09 0.6 1.27 1.12 2.61 1.57 3.96q0.67 2.13 1.12 4.26c0.38 1.57 0.67 3.21 0.82 4.85 0.23 1.72 0.3 3.37 0.3 5.09z"/>
			</g>
			<g id="&lt;Group&gt;">
				<g id="&lt;Group&gt;">
					<g id="&lt;Group&gt;">
						<path id="&lt;Path&gt;" class="s5" d="m381.91 349.19v128.6h-156.24v-21.67h134.65v-106.93z"/>
						<path id="&lt;Path&gt;" fill-rule="evenodd" class="s5" d="m371.08 361.86c-12.33 0-22.29-9.97-22.29-22.3 0-12.32 9.96-22.29 22.29-22.29 12.33 0 22.3 9.97 22.3 22.29 0 12.33-9.97 22.3-22.3 22.3z"/>
					</g>
					<g id="&lt;Group&gt;">
						<path id="&lt;Path&gt;" fill-rule="evenodd" class="s5" d="m442.63 357.24c-12.33 0-22.3-9.97-22.3-22.29 0-12.33 9.97-22.3 22.3-22.3 12.33 0 22.29 9.97 22.29 22.3 0 12.32-9.96 22.29-22.29 22.29z"/>
						<path id="&lt;Path&gt;" class="s5" d="m545.93 226.12v119.64h-97.36v-21.6h75.69v-98.04z"/>
					</g>
					<g id="&lt;Group&gt;">
						<path id="&lt;Path&gt;" fill-rule="evenodd" class="s5" d="m656.4 394.47c-12.33 0-22.29-9.97-22.29-22.3 0-12.33 9.96-22.29 22.29-22.29 12.33 0 22.3 9.96 22.3 22.29 0 12.33-9.97 22.3-22.3 22.3z"/>
						<path id="&lt;Path&gt;" fill-rule="evenodd" class="s5" d="m666.02 361.37h78.9v21.6h-78.9z"/>
					</g>
					<g id="&lt;Group&gt;">
						<path id="&lt;Path&gt;" fill-rule="evenodd" class="s5" d="m539.55 542.59c-12.33 0-22.3-9.97-22.3-22.3 0-12.32 9.97-22.29 22.3-22.29 12.33 0 22.29 9.97 22.29 22.29 0 12.33-9.96 22.3-22.29 22.3z"/>
						<path id="&lt;Path&gt;" class="s5" d="m687.39 582.33v163.05h-21.67v-141.38h-137.05v-74.87h21.67v53.2z"/>
					</g>
					<g id="&lt;Group&gt;">
						<path id="&lt;Path&gt;" fill-rule="evenodd" class="s5" d="m704.24 551.41c-12.33 0-22.3-9.96-22.3-22.29 0-12.33 9.97-22.29 22.3-22.29 12.33 0 22.29 9.96 22.29 22.29 0 12.33-9.96 22.29-22.29 22.29z"/>
						<path id="&lt;Path&gt;" fill-rule="evenodd" class="s5" d="m717.2 518.29h27.72v21.67h-27.72z"/>
					</g>
					<g id="&lt;Group&gt;">
						<path id="&lt;Path&gt;" fill-rule="evenodd" class="s5" d="m585.97 317.27c-12.32 0-22.29-9.97-22.29-22.29 0-12.33 9.97-22.3 22.29-22.3 12.33 0 22.3 9.97 22.3 22.3 0 12.32-9.97 22.29-22.3 22.29z"/>
						<path id="&lt;Path&gt;" fill-rule="evenodd" class="s5" d="m575.15 226.12h21.6v62.32h-21.6z"/>
					</g>
					<g id="&lt;Group&gt;">
						<path id="&lt;Path&gt;" fill-rule="evenodd" class="s5" d="m650.29 327.24c-12.33 0-22.3-9.96-22.3-22.29 0-12.33 9.97-22.3 22.3-22.3 12.32 0 22.29 9.97 22.29 22.3 0 12.33-9.97 22.29-22.29 22.29z"/>
						<path id="&lt;Path&gt;" class="s5" d="m729.38 237.41v78.31h-68.52v-21.6h46.93v-67.25c8.14 1.5 15.61 5.23 21.59 10.54z"/>
					</g>
					<g id="&lt;Group&gt;">
						<path id="&lt;Path&gt;" fill-rule="evenodd" class="s5" d="m445.39 293.01c-12.33 0-22.3-9.97-22.3-22.3 0-12.32 9.97-22.29 22.3-22.29 12.33 0 22.29 9.97 22.29 22.29 0 12.33-9.96 22.3-22.29 22.3z"/>
						<path id="&lt;Path&gt;" class="s5" d="m436.09 259.9v21.59h-52.01v-55.37h21.6v33.78z"/>
					</g>
					<g id="&lt;Group&gt;">
						<path id="&lt;Path&gt;" fill-rule="evenodd" class="s5" d="m329.28 715.02c-12.33 0-22.29-9.97-22.29-22.29 0-12.33 9.96-22.3 22.29-22.3 12.33 0 22.29 9.97 22.29 22.3 0 12.32-9.96 22.29-22.29 22.29z"/>
						<path id="&lt;Path&gt;" class="s5" d="m390.58 681.94v63.44h-21.59v-41.84h-30.42v-21.6z"/>
					</g>
					<g id="&lt;Group&gt;">
						<path id="&lt;Path&gt;" fill-rule="evenodd" class="s5" d="m380.36 659.95c-12.32 0-22.29-9.97-22.29-22.3 0-12.32 9.97-22.29 22.29-22.29 12.33 0 22.3 9.97 22.3 22.29 0 12.33-9.97 22.3-22.3 22.3z"/>
						<path id="&lt;Path&gt;" class="s5" d="m373.1 626.87v21.59h-108.88v-114.92h-38.55v-21.67h60.22v115z"/>
					</g>
					<g id="&lt;Group&gt;">
						<path id="&lt;Path&gt;" fill-rule="evenodd" class="s5" d="m445.39 592.15c-12.33 0-22.3-9.97-22.3-22.3 0-12.33 9.97-22.29 22.3-22.29 12.33 0 22.29 9.96 22.29 22.29 0 12.33-9.96 22.3-22.29 22.3z"/>
						<path id="&lt;Path&gt;" fill-rule="evenodd" class="s5" d="m434.52 569.85h21.67v175.53h-21.67z"/>
					</g>
					<g id="&lt;Group&gt;">
						<path id="&lt;Path&gt;" fill-rule="evenodd" class="s5" d="m582.87 404.58c-12.33 0-22.29-9.96-22.29-22.29 0-12.33 9.96-22.3 22.29-22.3 12.33 0 22.3 9.97 22.3 22.3 0 12.33-9.97 22.29-22.3 22.29z"/>
						<path id="&lt;Path&gt;" class="s5" d="m744.92 436.4v21.67h-172.91v-66.13h21.67v44.46z"/>
					</g>
					<g id="&lt;Group&gt;">
						<path id="&lt;Path&gt;" fill-rule="evenodd" class="s5" d="m291.33 394.47c-12.33 0-22.29-9.97-22.29-22.3 0-12.33 9.96-22.29 22.29-22.29 12.33 0 22.3 9.96 22.3 22.29 0 12.33-9.97 22.3-22.3 22.3z"/>
						<path id="&lt;Path&gt;" fill-rule="evenodd" class="s5" d="m225.67 361.37h65.6v21.6h-65.6z"/>
					</g>
					<g id="&lt;Group&gt;">
						<path id="&lt;Path&gt;" fill-rule="evenodd" class="s5" d="m308.09 320.19c-12.32 0-22.29-9.97-22.29-22.29 0-12.33 9.97-22.3 22.29-22.3 12.33 0 22.3 9.97 22.3 22.3 0 12.32-9.97 22.29-22.3 22.29z"/>
						<path id="&lt;Path&gt;" fill-rule="evenodd" class="s5" d="m297.33 226.12h21.59v57.47h-21.59z"/>
					</g>
					<g id="&lt;Group&gt;">
						<path id="&lt;Path&gt;" fill-rule="evenodd" class="s5" d="m519.98 679.74c-12.32 0-22.29-9.96-22.29-22.29 0-12.33 9.97-22.29 22.29-22.29 12.33 0 22.3 9.96 22.3 22.29 0 12.33-9.97 22.29-22.3 22.29z"/>
						<path id="&lt;Path&gt;" class="s5" d="m602.35 646.6v98.78h-21.67v-77.12h-55.3v-21.66z"/>
					</g>
				</g>
			</g>
			<text id="RAGE" style="transform: matrix(5.801,0,0,5.801,299.503,459.312)">
				<tspan x="0" y="0" class="t6">R</tspan><tspan  y="0" class="t6">A</tspan><tspan  y="0" class="t6">G</tspan><tspan  y="0" class="t6">E
</tspan>
			</text>
			<text id="COMPUTER" style="transform: matrix(6.999,0,0,6.999,260.884,526.757)">
				<tspan x="0" y="0" class="t7">C</tspan><tspan  y="0" class="t7">O</tspan><tspan  y="0" class="t7">M</tspan><tspan  y="0" class="t7">P</tspan><tspan  y="0" class="t7">U</tspan><tspan  y="0" class="t7">T</tspan><tspan  y="0" class="t7">E</tspan><tspan  y="0" class="t7">R
</tspan>
			</text>
			<text id="BALI" style="transform: matrix(6.999,0,0,6.999,386.884,596.757)">
				<tspan x="0" y="0" class="t7">B</tspan><tspan  y="0" class="t7">A</tspan><tspan  y="0" class="t7">L</tspan><tspan  y="0" class="t7">I
</tspan>
			</text>
			<g id="&lt;Group&gt;" style="opacity: .2">
				<path id="&lt;Path&gt;" class="s8" d="m581.2 226.12l-6.05 16.07-29.22 77.56-9.79 26.01-77.63 206.09-6.8 18-8.37 22.12-8.82 23.47-43.94 116.64-5 13.3h-115.68c-24.43 0-44.23-19.8-44.23-44.24v-430.71c0-24.5 19.8-44.31 44.23-44.31z"/>
			</g>
			<g id="&lt;Group&gt;" style="opacity: .2">
				<path id="&lt;Path&gt;" class="s8" d="m744.92 271.56v117.16l-134.43 356.66h-112.6l195.7-519.26h5.9c25.11 0 45.43 20.33 45.43 45.44z"/>
			</g>
			<g id="&lt;Group&gt;">
				<path id="&lt;Path&gt;" fill-rule="evenodd" class="s2" d="m274.79 286.98c-6.49 0-11.74-5.24-11.74-11.73 0-6.5 5.25-11.74 11.74-11.74 6.49 0 11.74 5.24 11.74 11.74 0 6.49-5.25 11.73-11.74 11.73z"/>
			</g>
			<g id="&lt;Group&gt;">
				<path id="&lt;Path&gt;" fill-rule="evenodd" class="s2" d="m274.79 708c-6.49 0-11.74-5.25-11.74-11.74 0-6.49 5.25-11.74 11.74-11.74 6.49 0 11.74 5.25 11.74 11.74 0 6.49-5.25 11.74-11.74 11.74z"/>
			</g>
			<g id="&lt;Group&gt;">
				<path id="&lt;Path&gt;" fill-rule="evenodd" class="s2" d="m695.8 286.98c-6.49 0-11.74-5.24-11.74-11.73 0-6.5 5.25-11.74 11.74-11.74 6.49 0 11.74 5.24 11.74 11.74 0 6.49-5.25 11.73-11.74 11.73z"/>
			</g>
			<g id="&lt;Group&gt;">
				<path id="&lt;Path&gt;" fill-rule="evenodd" class="s2" d="m695.8 708c-6.49 0-11.74-5.25-11.74-11.74 0-6.49 5.25-11.74 11.74-11.74 6.49 0 11.74 5.25 11.74 11.74 0 6.49-5.25 11.74-11.74 11.74z"/>
			</g>
		</g>
	</g>
</svg>