<svg version="1.2" xmlns="http://www.w3.org/2000/svg" viewBox="0 0 3000 972" width="3000" height="972">
	<style>
		tspan { white-space:pre } 
		.s0 { fill: #1e5947 } 
		.s1 { fill: #1e785c } 
		.s2 { fill: #2c2f30 } 
		.s3 { fill: #b5a34d } 
		.s4 { fill: #cedae3 } 
		.s5 { fill: #bdcad1 } 
		.t6 { font-size: 21px;fill: #43474a;font-weight: 100;font-family: "Montserrat-Black", "Montserrat" } 
		.t7 { font-size: 10px;fill: #43474a;font-weight: 100;font-family: "Montserrat-Black", "Montserrat" } 
		.s8 { fill: #ffffff } 
		.t9 { font-size: 250px;fill: #ffffff;font-weight: 100;font-family: "Montserrat-Black", "Montserrat" } 
	</style>
	<g id="&lt;Group&gt;">
		<g id="&lt;Group&gt;">
			<g id="&lt;Group&gt;">
				<path id="&lt;Compound Path&gt;" class="s0" d="m961.77 149.44c-0.02-17.39 11.41-32.11 27.18-37.04 6.69-2.08 11.52-7.87 11.51-14.87l-0.09-82.18c-0.01-8.59-6.99-15.56-15.59-15.55l-917.67 1.03c-8.6 0.01-15.56 6.99-15.55 15.59l1.06 940.1c0.01 8.6 6.99 15.56 15.58 15.55l917.67-1.03c8.6-0.01 15.56-6.99 15.55-15.59l-0.85-754.19c0-7-4.85-12.77-11.53-14.85-15.78-4.88-27.25-19.58-27.27-36.97z"/>
			</g>
		</g>
		<g id="&lt;Group&gt;">
			<g id="&lt;Group&gt;">
				<path id="&lt;Compound Path&gt;" fill-rule="evenodd" class="s1" d="m959.92 186.45c6.69 2.07 11.53 7.84 11.54 14.84l0.85 754.19c0.01 8.6-6.95 15.58-15.55 15.59l-940.1 1.06c-8.6 0.01-15.58-6.96-15.59-15.55l-1.05-940.1c-0.01-8.6 6.95-15.58 15.55-15.59l940.1-1.05c8.59-0.01 15.57 6.95 15.58 15.55l0.09 82.17c0.01 7.01-4.82 12.79-11.5 14.88-15.77 4.92-27.2 19.65-27.19 37.03 0.02 17.39 11.49 32.09 27.27 36.98zm-11.08-154.07c-0.01-5.59-4.53-10.1-10.12-10.09-5.59 0-10.1 4.52-10.09 10.11 0 5.59 4.53 10.11 10.12 10.1 5.58-0.01 10.1-4.53 10.09-10.12zm-906.16 1.02c-0.01-5.59-4.53-10.1-10.12-10.1-5.59 0.01-10.1 4.53-10.09 10.12 0 5.59 4.53 10.1 10.12 10.1 5.58-0.01 10.1-4.53 10.09-10.12zm907.18 904.93c-0.01-5.58-4.53-10.1-10.12-10.09-5.59 0.01-10.1 4.53-10.09 10.12 0 5.59 4.52 10.1 10.11 10.09 5.59 0 10.11-4.53 10.1-10.12z"/>
			</g>
		</g>
		<g id="&lt;Group&gt;" style="opacity: .5">
			<path id="&lt;Path&gt;" fill-rule="evenodd" class="s2" d="m705.36 687.89l0.12 112.61-437.93 0.5-0.13-112.62z"/>
		</g>
		<g id="&lt;Group&gt;">
			<path id="&lt;Path&gt;" class="s2" d="m149.83 195.78l0.65 581.16c0.03 25.09 20.39 45.4 45.48 45.37l80.04-0.09c42.17-0.04 76.33-34.27 76.28-76.45l268.35-0.3c0.05 42.17 34.28 76.33 76.45 76.28l80.04-0.09c25.09-0.03 45.4-20.39 45.38-45.48l-0.66-581.16c-0.03-25.08-20.39-45.4-45.48-45.37l-581.15 0.65c-25.09 0.03-45.41 20.39-45.38 45.48z"/>
		</g>
		<g id="&lt;Group&gt;">
			<g id="&lt;Group&gt;">
				<path id="&lt;Path&gt;" fill-rule="evenodd" class="s3" d="m453.95 914.01c-5.59 0.01-10.12-4.5-10.12-10.09-0.01-5.59 4.5-10.11 10.09-10.12 5.59 0 10.12 4.51 10.12 10.1 0.01 5.59-4.5 10.11-10.09 10.11z"/>
			</g>
			<g id="&lt;Group&gt;">
				<path id="&lt;Path&gt;" fill-rule="evenodd" class="s3" d="m494.85 913.97c-5.59 0-10.11-4.51-10.12-10.1 0-5.59 4.51-10.11 10.1-10.11 5.59-0.01 10.11 4.5 10.12 10.09 0 5.59-4.51 10.11-10.1 10.12z"/>
			</g>
			<g id="&lt;Group&gt;">
				<path id="&lt;Path&gt;" fill-rule="evenodd" class="s3" d="m535.76 913.92c-5.59 0.01-10.11-4.5-10.12-10.09-0.01-5.59 4.51-10.11 10.1-10.12 5.58-0.01 10.11 4.51 10.11 10.09 0.01 5.59-4.5 10.12-10.09 10.12z"/>
			</g>
			<g id="&lt;Group&gt;">
				<path id="&lt;Path&gt;" fill-rule="evenodd" class="s3" d="m576.66 913.88c-5.58 0-10.11-4.51-10.11-10.1-0.01-5.59 4.5-10.11 10.09-10.12 5.59 0 10.11 4.51 10.12 10.1 0.01 5.59-4.51 10.11-10.1 10.12z"/>
			</g>
			<g id="&lt;Group&gt;">
				<path id="&lt;Path&gt;" fill-rule="evenodd" class="s3" d="m617.57 913.83c-5.59 0.01-10.11-4.51-10.12-10.09 0-5.59 4.51-10.12 10.1-10.12 5.59-0.01 10.11 4.5 10.12 10.09 0 5.59-4.51 10.11-10.1 10.12z"/>
			</g>
			<g id="&lt;Group&gt;">
				<path id="&lt;Path&gt;" fill-rule="evenodd" class="s3" d="m658.48 913.78c-5.59 0.01-10.11-4.5-10.12-10.09-0.01-5.59 4.51-10.11 10.09-10.12 5.59 0 10.12 4.51 10.12 10.1 0.01 5.59-4.5 10.11-10.09 10.11z"/>
			</g>
			<g id="&lt;Group&gt;">
				<path id="&lt;Path&gt;" fill-rule="evenodd" class="s3" d="m699.38 913.74c-5.59 0-10.11-4.51-10.11-10.1-0.01-5.59 4.5-10.11 10.09-10.11 5.59-0.01 10.11 4.5 10.12 10.09 0 5.59-4.51 10.11-10.1 10.12z"/>
			</g>
			<g id="&lt;Group&gt;">
				<path id="&lt;Path&gt;" fill-rule="evenodd" class="s3" d="m740.29 913.69c-5.59 0.01-10.11-4.5-10.12-10.09-0.01-5.59 4.51-10.11 10.1-10.12 5.59-0.01 10.11 4.51 10.11 10.09 0.01 5.59-4.5 10.12-10.09 10.12z"/>
			</g>
			<g id="&lt;Group&gt;">
				<path id="&lt;Path&gt;" fill-rule="evenodd" class="s3" d="m781.19 913.65c-5.58 0-10.11-4.51-10.11-10.1-0.01-5.59 4.5-10.11 10.09-10.12 5.59 0 10.11 4.51 10.12 10.1 0.01 5.59-4.51 10.11-10.1 10.12z"/>
			</g>
			<g id="&lt;Group&gt;">
				<path id="&lt;Path&gt;" fill-rule="evenodd" class="s3" d="m822.1 913.6c-5.59 0.01-10.11-4.51-10.12-10.09 0-5.59 4.51-10.12 10.1-10.12 5.59-0.01 10.11 4.5 10.12 10.09 0 5.59-4.51 10.11-10.1 10.12z"/>
			</g>
			<g id="&lt;Group&gt;">
				<path id="&lt;Path&gt;" fill-rule="evenodd" class="s3" d="m474.44 948.98c-5.59 0-10.11-4.51-10.12-10.1-0.01-5.59 4.51-10.11 10.1-10.12 5.58 0 10.11 4.51 10.11 10.1 0.01 5.59-4.5 10.11-10.09 10.12z"/>
			</g>
			<g id="&lt;Group&gt;">
				<path id="&lt;Path&gt;" fill-rule="evenodd" class="s3" d="m515.34 948.93c-5.58 0.01-10.11-4.51-10.11-10.1-0.01-5.58 4.5-10.11 10.09-10.11 5.59-0.01 10.11 4.5 10.12 10.09 0.01 5.59-4.51 10.11-10.1 10.12z"/>
			</g>
			<g id="&lt;Group&gt;">
				<path id="&lt;Path&gt;" fill-rule="evenodd" class="s3" d="m556.25 948.88c-5.59 0.01-10.11-4.5-10.12-10.09 0-5.59 4.51-10.11 10.1-10.12 5.59-0.01 10.11 4.51 10.12 10.1 0 5.58-4.51 10.11-10.1 10.11z"/>
			</g>
			<g id="&lt;Group&gt;">
				<path id="&lt;Path&gt;" fill-rule="evenodd" class="s3" d="m597.16 948.84c-5.59 0-10.11-4.51-10.12-10.1-0.01-5.59 4.51-10.11 10.09-10.12 5.59 0 10.12 4.51 10.12 10.1 0.01 5.59-4.5 10.11-10.09 10.12z"/>
			</g>
			<g id="&lt;Group&gt;">
				<path id="&lt;Path&gt;" fill-rule="evenodd" class="s3" d="m638.06 948.79c-5.59 0.01-10.11-4.5-10.11-10.09-0.01-5.59 4.5-10.11 10.09-10.12 5.59-0.01 10.11 4.51 10.12 10.09 0 5.59-4.51 10.12-10.1 10.12z"/>
			</g>
			<g id="&lt;Group&gt;">
				<path id="&lt;Path&gt;" fill-rule="evenodd" class="s3" d="m678.97 948.75c-5.59 0-10.11-4.51-10.12-10.1 0-5.59 4.51-10.11 10.1-10.12 5.59 0 10.11 4.51 10.11 10.1 0.01 5.59-4.5 10.11-10.09 10.12z"/>
			</g>
			<g id="&lt;Group&gt;">
				<path id="&lt;Path&gt;" fill-rule="evenodd" class="s3" d="m719.88 948.7c-5.59 0.01-10.12-4.51-10.12-10.1-0.01-5.58 4.5-10.11 10.09-10.11 5.59-0.01 10.11 4.5 10.12 10.09 0.01 5.59-4.51 10.11-10.09 10.12z"/>
			</g>
			<g id="&lt;Group&gt;">
				<path id="&lt;Path&gt;" fill-rule="evenodd" class="s3" d="m760.78 948.65c-5.59 0.01-10.11-4.5-10.12-10.09 0-5.59 4.51-10.11 10.1-10.12 5.59-0.01 10.11 4.51 10.12 10.1 0 5.58-4.51 10.11-10.1 10.11z"/>
			</g>
			<g id="&lt;Group&gt;">
				<path id="&lt;Path&gt;" fill-rule="evenodd" class="s3" d="m801.69 948.61c-5.59 0-10.11-4.51-10.12-10.1-0.01-5.59 4.51-10.11 10.09-10.12 5.59 0 10.12 4.51 10.12 10.1 0.01 5.59-4.5 10.11-10.09 10.12z"/>
			</g>
			<g id="&lt;Group&gt;">
				<path id="&lt;Path&gt;" fill-rule="evenodd" class="s3" d="m842.59 948.56c-5.59 0.01-10.11-4.5-10.11-10.09-0.01-5.59 4.5-10.11 10.09-10.12 5.59-0.01 10.11 4.51 10.12 10.09 0.01 5.59-4.51 10.12-10.1 10.12z"/>
			</g>
		</g>
		<g id="&lt;Group&gt;">
			<g id="&lt;Group&gt;">
				<path id="&lt;Path&gt;" fill-rule="evenodd" class="s3" d="m904.23 462.68c-5.59 0.01-10.11-4.5-10.12-10.09 0-5.59 4.51-10.11 10.1-10.12 5.59 0 10.11 4.51 10.12 10.1 0 5.59-4.51 10.11-10.1 10.11z"/>
			</g>
			<g id="&lt;Group&gt;">
				<path id="&lt;Path&gt;" fill-rule="evenodd" class="s3" d="m904.28 503.59c-5.59 0.01-10.11-4.51-10.12-10.09-0.01-5.59 4.51-10.12 10.1-10.12 5.58-0.01 10.11 4.5 10.11 10.09 0.01 5.59-4.5 10.11-10.09 10.12z"/>
			</g>
			<g id="&lt;Group&gt;">
				<path id="&lt;Path&gt;" fill-rule="evenodd" class="s3" d="m904.32 544.5c-5.58 0-10.11-4.51-10.11-10.1-0.01-5.59 4.5-10.11 10.09-10.12 5.59 0 10.11 4.51 10.12 10.1 0.01 5.59-4.51 10.11-10.1 10.12z"/>
			</g>
			<g id="&lt;Group&gt;">
				<path id="&lt;Path&gt;" fill-rule="evenodd" class="s3" d="m904.37 585.4c-5.59 0.01-10.11-4.5-10.12-10.09 0-5.59 4.51-10.11 10.1-10.12 5.59-0.01 10.11 4.51 10.12 10.09 0 5.59-4.51 10.12-10.1 10.12z"/>
			</g>
			<g id="&lt;Group&gt;">
				<path id="&lt;Path&gt;" fill-rule="evenodd" class="s3" d="m904.42 626.31c-5.59 0.01-10.11-4.51-10.12-10.1-0.01-5.59 4.51-10.11 10.09-10.11 5.59-0.01 10.12 4.5 10.12 10.09 0.01 5.59-4.5 10.11-10.09 10.12z"/>
			</g>
			<g id="&lt;Group&gt;">
				<path id="&lt;Path&gt;" fill-rule="evenodd" class="s3" d="m904.46 667.22c-5.59 0-10.11-4.51-10.12-10.1 0-5.59 4.51-10.11 10.1-10.12 5.59 0 10.11 4.51 10.12 10.1 0 5.59-4.51 10.11-10.1 10.12z"/>
			</g>
			<g id="&lt;Group&gt;">
				<path id="&lt;Path&gt;" fill-rule="evenodd" class="s3" d="m904.51 708.12c-5.59 0.01-10.11-4.51-10.12-10.09-0.01-5.59 4.51-10.12 10.1-10.12 5.58-0.01 10.11 4.5 10.11 10.09 0.01 5.59-4.5 10.11-10.09 10.12z"/>
			</g>
			<g id="&lt;Group&gt;">
				<path id="&lt;Path&gt;" fill-rule="evenodd" class="s3" d="m904.55 749.03c-5.58 0-10.11-4.51-10.11-10.1-0.01-5.59 4.5-10.11 10.09-10.12 5.59 0 10.11 4.51 10.12 10.1 0.01 5.59-4.51 10.11-10.1 10.12z"/>
			</g>
			<g id="&lt;Group&gt;">
				<path id="&lt;Path&gt;" fill-rule="evenodd" class="s3" d="m904.6 789.93c-5.59 0.01-10.11-4.5-10.12-10.09 0-5.59 4.51-10.11 10.1-10.12 5.59-0.01 10.11 4.51 10.12 10.1 0 5.58-4.51 10.11-10.1 10.11z"/>
			</g>
			<g id="&lt;Group&gt;">
				<path id="&lt;Path&gt;" fill-rule="evenodd" class="s3" d="m904.65 830.84c-5.59 0.01-10.11-4.51-10.12-10.1-0.01-5.58 4.5-10.11 10.09-10.11 5.59-0.01 10.12 4.5 10.12 10.09 0.01 5.59-4.5 10.11-10.09 10.12z"/>
			</g>
			<g id="&lt;Group&gt;">
				<path id="&lt;Path&gt;" fill-rule="evenodd" class="s3" d="m939.24 483.1c-5.59 0-10.11-4.51-10.12-10.1 0-5.59 4.51-10.11 10.1-10.11 5.59-0.01 10.11 4.5 10.12 10.09 0 5.59-4.51 10.11-10.1 10.12z"/>
			</g>
			<g id="&lt;Group&gt;">
				<path id="&lt;Path&gt;" fill-rule="evenodd" class="s3" d="m939.29 524c-5.59 0.01-10.12-4.5-10.12-10.09-0.01-5.59 4.5-10.11 10.09-10.12 5.59-0.01 10.11 4.51 10.12 10.1 0.01 5.59-4.51 10.11-10.09 10.11z"/>
			</g>
			<g id="&lt;Group&gt;">
				<path id="&lt;Path&gt;" fill-rule="evenodd" class="s3" d="m939.33 564.91c-5.59 0.01-10.11-4.51-10.12-10.09 0-5.59 4.51-10.12 10.1-10.12 5.59-0.01 10.11 4.5 10.12 10.09 0 5.59-4.51 10.11-10.1 10.12z"/>
			</g>
			<g id="&lt;Group&gt;">
				<path id="&lt;Path&gt;" fill-rule="evenodd" class="s3" d="m939.38 605.82c-5.59 0-10.11-4.51-10.12-10.1-0.01-5.59 4.51-10.11 10.1-10.12 5.58 0 10.11 4.51 10.11 10.1 0.01 5.59-4.5 10.11-10.09 10.12z"/>
			</g>
			<g id="&lt;Group&gt;">
				<path id="&lt;Path&gt;" fill-rule="evenodd" class="s3" d="m939.42 646.72c-5.58 0.01-10.11-4.5-10.11-10.09-0.01-5.59 4.5-10.11 10.09-10.12 5.59-0.01 10.11 4.51 10.12 10.09 0.01 5.59-4.51 10.12-10.1 10.12z"/>
			</g>
			<g id="&lt;Group&gt;">
				<path id="&lt;Path&gt;" fill-rule="evenodd" class="s3" d="m939.47 687.63c-5.59 0.01-10.11-4.51-10.12-10.1 0-5.59 4.51-10.11 10.1-10.11 5.59-0.01 10.11 4.5 10.11 10.09 0.01 5.59-4.5 10.11-10.09 10.12z"/>
			</g>
			<g id="&lt;Group&gt;">
				<path id="&lt;Path&gt;" fill-rule="evenodd" class="s3" d="m939.52 728.53c-5.59 0.01-10.12-4.5-10.12-10.09-0.01-5.59 4.5-10.11 10.09-10.12 5.59 0 10.11 4.51 10.12 10.1 0.01 5.59-4.51 10.11-10.09 10.11z"/>
			</g>
			<g id="&lt;Group&gt;">
				<path id="&lt;Path&gt;" fill-rule="evenodd" class="s3" d="m939.56 769.44c-5.59 0.01-10.11-4.51-10.12-10.09 0-5.59 4.51-10.12 10.1-10.12 5.59-0.01 10.11 4.5 10.12 10.09 0 5.59-4.51 10.11-10.1 10.12z"/>
			</g>
			<g id="&lt;Group&gt;">
				<path id="&lt;Path&gt;" fill-rule="evenodd" class="s3" d="m939.61 810.35c-5.59 0-10.11-4.51-10.12-10.1-0.01-5.59 4.51-10.11 10.1-10.12 5.58 0 10.11 4.51 10.11 10.1 0.01 5.59-4.5 10.11-10.09 10.12z"/>
			</g>
			<g id="&lt;Group&gt;">
				<path id="&lt;Path&gt;" fill-rule="evenodd" class="s3" d="m939.65 851.25c-5.59 0.01-10.11-4.5-10.11-10.09-0.01-5.59 4.5-10.11 10.09-10.12 5.59-0.01 10.11 4.51 10.12 10.1 0.01 5.58-4.51 10.11-10.1 10.11z"/>
			</g>
		</g>
		<g id="&lt;Group&gt;">
			<g id="&lt;Group&gt;">
				<path id="&lt;Path&gt;" fill-rule="evenodd" class="s3" d="m141.96 914.37c-5.59 0-10.11-4.51-10.12-10.1-0.01-5.59 4.51-10.11 10.09-10.12 5.59 0 10.12 4.51 10.12 10.1 0.01 5.59-4.5 10.11-10.09 10.12z"/>
			</g>
			<g id="&lt;Group&gt;">
				<path id="&lt;Path&gt;" fill-rule="evenodd" class="s3" d="m182.86 914.32c-5.59 0.01-10.11-4.51-10.11-10.1-0.01-5.58 4.5-10.11 10.09-10.11 5.59-0.01 10.11 4.5 10.12 10.09 0 5.59-4.51 10.11-10.1 10.12z"/>
			</g>
			<g id="&lt;Group&gt;">
				<path id="&lt;Path&gt;" fill-rule="evenodd" class="s3" d="m223.77 914.27c-5.59 0.01-10.11-4.5-10.12-10.09 0-5.59 4.51-10.11 10.1-10.12 5.59-0.01 10.11 4.51 10.11 10.1 0.01 5.58-4.5 10.11-10.09 10.11z"/>
			</g>
			<g id="&lt;Group&gt;">
				<path id="&lt;Path&gt;" fill-rule="evenodd" class="s3" d="m162.45 949.33c-5.59 0-10.11-4.51-10.12-10.1 0-5.59 4.51-10.11 10.1-10.12 5.59 0 10.11 4.51 10.11 10.1 0.01 5.59-4.5 10.11-10.09 10.12z"/>
			</g>
			<g id="&lt;Group&gt;">
				<path id="&lt;Path&gt;" fill-rule="evenodd" class="s3" d="m203.36 949.28c-5.59 0.01-10.12-4.51-10.12-10.09-0.01-5.59 4.5-10.12 10.09-10.12 5.59-0.01 10.11 4.5 10.12 10.09 0.01 5.59-4.51 10.11-10.09 10.12z"/>
			</g>
			<g id="&lt;Group&gt;">
				<path id="&lt;Path&gt;" fill-rule="evenodd" class="s3" d="m244.26 949.23c-5.59 0.01-10.11-4.5-10.12-10.09 0-5.59 4.51-10.11 10.1-10.12 5.59 0 10.11 4.51 10.12 10.1 0 5.59-4.51 10.11-10.1 10.11z"/>
			</g>
		</g>
		<g id="&lt;Group&gt;">
			<g id="&lt;Group&gt;">
				<path id="&lt;Path&gt;" fill-rule="evenodd" class="s3" d="m33.97 820.83c-5.59 0.01-10.11-4.51-10.12-10.1-0.01-5.58 4.51-10.11 10.1-10.11 5.58-0.01 10.11 4.5 10.11 10.09 0.01 5.59-4.5 10.11-10.09 10.12z"/>
			</g>
			<g id="&lt;Group&gt;">
				<path id="&lt;Path&gt;" fill-rule="evenodd" class="s3" d="m33.92 779.92c-5.59 0.01-10.11-4.5-10.12-10.09 0-5.59 4.51-10.11 10.1-10.12 5.59-0.01 10.11 4.51 10.12 10.1 0 5.58-4.51 10.11-10.1 10.11z"/>
			</g>
			<g id="&lt;Group&gt;">
				<path id="&lt;Path&gt;" fill-rule="evenodd" class="s3" d="m33.88 739.02c-5.59 0-10.12-4.51-10.12-10.1-0.01-5.59 4.5-10.11 10.09-10.12 5.59 0 10.11 4.51 10.12 10.1 0.01 5.59-4.51 10.11-10.09 10.12z"/>
			</g>
			<g id="&lt;Group&gt;">
				<path id="&lt;Path&gt;" fill-rule="evenodd" class="s3" d="m68.97 841.24c-5.58 0.01-10.11-4.5-10.11-10.09-0.01-5.59 4.5-10.11 10.09-10.12 5.59-0.01 10.11 4.51 10.12 10.1 0.01 5.58-4.51 10.11-10.1 10.11z"/>
			</g>
			<g id="&lt;Group&gt;">
				<path id="&lt;Path&gt;" fill-rule="evenodd" class="s3" d="m68.93 800.34c-5.59 0-10.11-4.51-10.12-10.1-0.01-5.59 4.51-10.11 10.1-10.12 5.59 0 10.11 4.51 10.11 10.1 0.01 5.59-4.5 10.11-10.09 10.12z"/>
			</g>
			<g id="&lt;Group&gt;">
				<path id="&lt;Path&gt;" fill-rule="evenodd" class="s3" d="m68.88 759.43c-5.59 0.01-10.11-4.5-10.11-10.09-0.01-5.59 4.5-10.12 10.09-10.12 5.59-0.01 10.11 4.5 10.12 10.09 0 5.59-4.51 10.12-10.1 10.12z"/>
			</g>
		</g>
		<g id="&lt;Group&gt;">
			<g id="&lt;Group&gt;">
				<path id="&lt;Path&gt;" fill-rule="evenodd" class="s3" d="m107.25 43.43c-5.59 0.01-10.12-4.5-10.12-10.09-0.01-5.59 4.5-10.11 10.09-10.12 5.59-0.01 10.11 4.51 10.12 10.09 0.01 5.59-4.51 10.12-10.09 10.12z"/>
			</g>
			<g id="&lt;Group&gt;">
				<path id="&lt;Path&gt;" fill-rule="evenodd" class="s3" d="m148.15 43.39c-5.59 0-10.11-4.51-10.12-10.1 0-5.59 4.51-10.11 10.1-10.12 5.59 0 10.11 4.51 10.12 10.1 0 5.59-4.51 10.11-10.1 10.12z"/>
			</g>
			<g id="&lt;Group&gt;">
				<path id="&lt;Path&gt;" fill-rule="evenodd" class="s3" d="m86.83 78.44c-5.59 0.01-10.11-4.51-10.12-10.1 0-5.58 4.51-10.11 10.1-10.11 5.59-0.01 10.11 4.5 10.12 10.09 0 5.59-4.51 10.11-10.1 10.12z"/>
			</g>
			<g id="&lt;Group&gt;">
				<path id="&lt;Path&gt;" fill-rule="evenodd" class="s3" d="m127.74 78.39c-5.59 0.01-10.11-4.5-10.12-10.09-0.01-5.59 4.51-10.11 10.09-10.12 5.59-0.01 10.12 4.51 10.12 10.1 0.01 5.59-4.5 10.11-10.09 10.11z"/>
			</g>
		</g>
		<g id="&lt;Group&gt;">
			<g id="&lt;Group&gt;">
				<path id="&lt;Path&gt;" fill-rule="evenodd" class="s3" d="m823.07 42.63c-5.59 0-10.11-4.51-10.12-10.1 0-5.59 4.51-10.11 10.1-10.11 5.59-0.01 10.11 4.5 10.11 10.09 0.01 5.59-4.5 10.11-10.09 10.12z"/>
			</g>
			<g id="&lt;Group&gt;">
				<path id="&lt;Path&gt;" fill-rule="evenodd" class="s3" d="m863.98 42.58c-5.59 0.01-10.12-4.5-10.12-10.09-0.01-5.59 4.5-10.11 10.09-10.12 5.59-0.01 10.12 4.51 10.12 10.09 0.01 5.59-4.5 10.12-10.09 10.12z"/>
			</g>
			<g id="&lt;Group&gt;">
				<path id="&lt;Path&gt;" fill-rule="evenodd" class="s3" d="m802.66 77.64c-5.59 0-10.12-4.51-10.12-10.1-0.01-5.59 4.5-10.11 10.09-10.12 5.59 0 10.12 4.51 10.12 10.1 0.01 5.59-4.5 10.11-10.09 10.12z"/>
			</g>
			<g id="&lt;Group&gt;">
				<path id="&lt;Path&gt;" fill-rule="evenodd" class="s3" d="m843.56 77.59c-5.59 0.01-10.11-4.51-10.12-10.1 0-5.58 4.51-10.11 10.1-10.11 5.59-0.01 10.11 4.5 10.12 10.09 0 5.59-4.51 10.11-10.1 10.12z"/>
			</g>
		</g>
		<g id="&lt;Group&gt;">
			<g id="&lt;Group&gt;">
				<path id="&lt;Path&gt;" fill-rule="evenodd" class="s3" d="m686.46 42.78c-5.59 0.01-10.12-4.5-10.12-10.09-0.01-5.59 4.5-10.11 10.09-10.12 5.59-0.01 10.11 4.51 10.12 10.09 0.01 5.59-4.51 10.12-10.09 10.12z"/>
			</g>
			<g id="&lt;Group&gt;">
				<path id="&lt;Path&gt;" fill-rule="evenodd" class="s3" d="m727.36 42.74c-5.59 0-10.11-4.51-10.12-10.1 0-5.59 4.51-10.11 10.1-10.12 5.59 0 10.11 4.51 10.12 10.1 0 5.59-4.51 10.11-10.1 10.12z"/>
			</g>
			<g id="&lt;Group&gt;">
				<path id="&lt;Path&gt;" fill-rule="evenodd" class="s3" d="m666.04 77.79c-5.59 0.01-10.11-4.51-10.12-10.1 0-5.58 4.51-10.11 10.1-10.11 5.59-0.01 10.11 4.5 10.12 10.09 0 5.59-4.51 10.11-10.1 10.12z"/>
			</g>
			<g id="&lt;Group&gt;">
				<path id="&lt;Path&gt;" fill-rule="evenodd" class="s3" d="m706.95 77.74c-5.59 0.01-10.11-4.5-10.12-10.09-0.01-5.59 4.51-10.11 10.1-10.12 5.58-0.01 10.11 4.51 10.11 10.1 0.01 5.58-4.5 10.11-10.09 10.11z"/>
			</g>
		</g>
		<g id="&lt;Group&gt;">
			<g id="&lt;Group&gt;">
				<path id="&lt;Path&gt;" fill-rule="evenodd" class="s3" d="m549.84 42.94c-5.59 0-10.11-4.51-10.12-10.1 0-5.59 4.51-10.11 10.1-10.12 5.59 0 10.11 4.51 10.12 10.1 0 5.59-4.51 10.11-10.1 10.12z"/>
			</g>
			<g id="&lt;Group&gt;">
				<path id="&lt;Path&gt;" fill-rule="evenodd" class="s3" d="m590.75 42.89c-5.59 0.01-10.12-4.51-10.12-10.1-0.01-5.58 4.5-10.11 10.09-10.11 5.59-0.01 10.12 4.5 10.12 10.09 0.01 5.59-4.5 10.11-10.09 10.12z"/>
			</g>
			<g id="&lt;Group&gt;">
				<path id="&lt;Path&gt;" fill-rule="evenodd" class="s3" d="m529.43 77.94c-5.59 0.01-10.11-4.5-10.12-10.09-0.01-5.59 4.51-10.11 10.09-10.12 5.59-0.01 10.12 4.51 10.12 10.09 0.01 5.59-4.5 10.12-10.09 10.12z"/>
			</g>
			<g id="&lt;Group&gt;">
				<path id="&lt;Path&gt;" fill-rule="evenodd" class="s3" d="m570.33 77.9c-5.59 0-10.11-4.51-10.12-10.1 0-5.59 4.51-10.11 10.1-10.12 5.59 0 10.11 4.51 10.12 10.1 0 5.59-4.51 10.11-10.1 10.12z"/>
			</g>
		</g>
		<g id="&lt;Group&gt;">
			<g id="&lt;Group&gt;">
				<path id="&lt;Path&gt;" fill-rule="evenodd" class="s3" d="m413.23 43.09c-5.59 0.01-10.12-4.51-10.12-10.1-0.01-5.59 4.5-10.11 10.09-10.11 5.59-0.01 10.11 4.5 10.12 10.09 0.01 5.59-4.51 10.11-10.09 10.12z"/>
			</g>
			<g id="&lt;Group&gt;">
				<path id="&lt;Path&gt;" fill-rule="evenodd" class="s3" d="m454.13 43.04c-5.59 0.01-10.11-4.5-10.12-10.09 0-5.59 4.51-10.11 10.1-10.12 5.59-0.01 10.11 4.51 10.12 10.1 0 5.58-4.51 10.11-10.1 10.11z"/>
			</g>
			<g id="&lt;Group&gt;">
				<path id="&lt;Path&gt;" fill-rule="evenodd" class="s3" d="m392.81 78.1c-5.59 0-10.11-4.51-10.12-10.1 0-5.59 4.51-10.11 10.1-10.12 5.59 0 10.11 4.51 10.12 10.1 0 5.59-4.51 10.11-10.1 10.12z"/>
			</g>
			<g id="&lt;Group&gt;">
				<path id="&lt;Path&gt;" fill-rule="evenodd" class="s3" d="m433.72 78.05c-5.59 0.01-10.11-4.51-10.12-10.09-0.01-5.59 4.51-10.12 10.1-10.12 5.58-0.01 10.11 4.5 10.11 10.09 0.01 5.59-4.5 10.11-10.09 10.12z"/>
			</g>
		</g>
		<path id="&lt;Path&gt;" class="s3" d="m23.88 841.29l0.13 107.89 107.88-0.12z"/>
		<g id="&lt;Group&gt;">
			<g id="&lt;Group&gt;">
				<path id="&lt;Path&gt;" class="s4" d="m745.58 271.47l0.48 428.39c0.03 25.11-20.28 45.46-45.38 45.49l-428.47 0.48c-25.03 0.02-45.38-20.28-45.41-45.38l-0.48-428.4c-0.03-25.1 20.27-45.45 45.31-45.48l428.46-0.48c1.57 0 3.14 0.07 4.64 0.22 1.27 0.15 2.46 0.29 3.66 0.52 0.07 0 0.15 0 0.22 0.07 0.75 0.07 1.5 0.3 2.25 0.45 0.97 0.22 2.01 0.52 2.99 0.82 1.12 0.37 2.24 0.81 3.36 1.26 3.96 1.57 7.63 3.73 10.92 6.34 0.67 0.52 1.27 1.05 1.87 1.57 1.12 0.97 2.17 1.94 3.14 2.98 0.3 0.3 0.6 0.6 0.82 0.9 0.67 0.75 1.35 1.57 1.95 2.39 0.45 0.52 0.89 1.04 1.19 1.57 0.53 0.67 0.98 1.34 1.43 2.09 0.37 0.45 0.67 0.97 0.89 1.49q0.79 1.23 1.35 2.46c0.38 0.68 0.68 1.42 0.98 2.1 0.59 1.27 1.12 2.61 1.57 3.95q0.67 2.13 1.12 4.26c0.38 1.57 0.68 3.21 0.83 4.86 0.23 1.72 0.31 3.36 0.31 5.08z"/>
			</g>
			<g id="&lt;Group&gt;">
				<g id="&lt;Group&gt;">
					<g id="&lt;Group&gt;">
						<path id="&lt;Path&gt;" class="s5" d="m382.66 349.52l0.14 128.6-156.25 0.17-0.02-21.67 134.65-0.15-0.12-106.93z"/>
						<path id="&lt;Path&gt;" fill-rule="evenodd" class="s5" d="m371.84 362.19c-12.33 0.01-22.31-9.94-22.32-22.27-0.02-12.33 9.94-22.3 22.27-22.32 12.33-0.01 22.3 9.94 22.32 22.27 0.01 12.33-9.94 22.31-22.27 22.32z"/>
					</g>
					<g id="&lt;Group&gt;">
						<path id="&lt;Path&gt;" fill-rule="evenodd" class="s5" d="m443.38 357.49c-12.33 0.02-22.31-9.94-22.32-22.27-0.01-12.32 9.94-22.3 22.27-22.31 12.33-0.02 22.3 9.94 22.32 22.26 0.01 12.33-9.94 22.31-22.27 22.32z"/>
						<path id="&lt;Path&gt;" class="s5" d="m546.54 226.26l0.13 119.63-97.36 0.11-0.03-21.59 75.7-0.09-0.11-98.03z"/>
					</g>
					<g id="&lt;Group&gt;">
						<path id="&lt;Path&gt;" fill-rule="evenodd" class="s5" d="m657.19 394.48c-12.32 0.01-22.3-9.94-22.31-22.27-0.02-12.33 9.94-22.3 22.26-22.32 12.33-0.01 22.31 9.94 22.32 22.27 0.02 12.33-9.94 22.31-22.27 22.32z"/>
						<path id="&lt;Path&gt;" fill-rule="evenodd" class="s5" d="m745.68 361.29l0.02 21.59-78.91 0.09-0.02-21.59z"/>
					</g>
					<g id="&lt;Group&gt;">
						<path id="&lt;Path&gt;" fill-rule="evenodd" class="s5" d="m540.51 542.73c-12.33 0.02-22.31-9.94-22.32-22.27-0.02-12.32 9.94-22.3 22.27-22.31 12.32-0.02 22.3 9.94 22.31 22.26 0.02 12.33-9.94 22.31-22.26 22.32z"/>
						<path id="&lt;Path&gt;" class="s5" d="m688.39 582.31l0.18 163.05-21.67 0.02-0.16-141.37-137.04 0.15-0.08-74.87 21.67-0.03 0.06 53.2z"/>
					</g>
					<g id="&lt;Group&gt;">
						<path id="&lt;Path&gt;" fill-rule="evenodd" class="s5" d="m705.21 551.37c-12.33 0.02-22.31-9.94-22.32-22.26-0.02-12.33 9.94-22.31 22.27-22.32 12.32-0.02 22.3 9.94 22.31 22.27 0.02 12.32-9.94 22.3-22.26 22.31z"/>
						<path id="&lt;Path&gt;" fill-rule="evenodd" class="s5" d="m745.85 518.21l0.03 21.67-27.72 0.03-0.03-21.67z"/>
					</g>
					<g id="&lt;Group&gt;">
						<path id="&lt;Path&gt;" fill-rule="evenodd" class="s5" d="m586.68 317.36c-12.33 0.02-22.31-9.94-22.32-22.27-0.01-12.32 9.94-22.3 22.27-22.31 12.33-0.02 22.3 9.94 22.32 22.26 0.01 12.33-9.94 22.31-22.27 22.32z"/>
						<path id="&lt;Path&gt;" fill-rule="evenodd" class="s5" d="m597.35 226.2l0.07 62.32-21.6 0.03-0.07-62.32z"/>
					</g>
					<g id="&lt;Group&gt;">
						<path id="&lt;Path&gt;" fill-rule="evenodd" class="s5" d="m651 327.26c-12.33 0.02-22.3-9.94-22.32-22.27-0.01-12.32 9.94-22.3 22.27-22.32 12.33-0.01 22.31 9.95 22.32 22.27 0.01 12.33-9.94 22.31-22.27 22.32z"/>
						<path id="&lt;Path&gt;" class="s5" d="m730 237.34l0.08 78.31-68.52 0.08-0.02-21.6 46.92-0.05-0.07-67.25c8.15 1.48 15.62 5.21 21.61 10.51z"/>
					</g>
					<g id="&lt;Group&gt;">
						<path id="&lt;Path&gt;" fill-rule="evenodd" class="s5" d="m446.07 293.26c-12.33 0.01-22.31-9.94-22.32-22.27-0.02-12.33 9.94-22.31 22.27-22.32 12.32-0.01 22.3 9.94 22.31 22.27 0.02 12.33-9.94 22.3-22.26 22.32z"/>
						<path id="&lt;Path&gt;" class="s5" d="m436.73 260.16l0.02 21.59-52 0.06-0.07-55.37 21.6-0.02 0.04 33.77z"/>
					</g>
					<g id="&lt;Group&gt;">
						<path id="&lt;Path&gt;" fill-rule="evenodd" class="s5" d="m330.43 715.4c-12.33 0.01-22.3-9.94-22.32-22.27-0.01-12.33 9.94-22.3 22.27-22.32 12.33-0.01 22.31 9.94 22.32 22.27 0.01 12.33-9.94 22.31-22.27 22.32z"/>
						<path id="&lt;Path&gt;" class="s5" d="m391.7 682.25l0.07 63.44-21.6 0.03-0.04-41.85-30.42 0.04-0.02-21.6z"/>
					</g>
					<g id="&lt;Group&gt;">
						<path id="&lt;Path&gt;" fill-rule="evenodd" class="s5" d="m381.45 660.27c-12.32 0.02-22.3-9.94-22.31-22.27-0.02-12.33 9.94-22.3 22.26-22.32 12.33-0.01 22.31 9.94 22.32 22.27 0.02 12.33-9.94 22.31-22.27 22.32z"/>
						<path id="&lt;Path&gt;" class="s5" d="m374.15 627.2l0.02 21.6-108.87 0.12-0.13-114.93-38.56 0.05-0.02-21.67 60.23-0.07 0.13 115z"/>
					</g>
					<g id="&lt;Group&gt;">
						<path id="&lt;Path&gt;" fill-rule="evenodd" class="s5" d="m446.4 592.4c-12.33 0.01-22.3-9.94-22.32-22.27-0.01-12.33 9.94-22.31 22.27-22.32 12.33-0.01 22.31 9.94 22.32 22.27 0.01 12.33-9.94 22.3-22.27 22.32z"/>
						<path id="&lt;Path&gt;" fill-rule="evenodd" class="s5" d="m457.18 570.09l0.2 175.53-21.67 0.02-0.2-175.52z"/>
					</g>
					<g id="&lt;Group&gt;">
						<path id="&lt;Path&gt;" fill-rule="evenodd" class="s5" d="m583.68 404.68c-12.33 0.01-22.31-9.94-22.32-22.27-0.02-12.33 9.94-22.31 22.27-22.32 12.32-0.01 22.3 9.94 22.31 22.27 0.02 12.33-9.94 22.3-22.26 22.32z"/>
						<path id="&lt;Path&gt;" class="s5" d="m745.76 436.31l0.03 21.67-172.91 0.19-0.08-66.13 21.67-0.02 0.05 44.46z"/>
					</g>
					<g id="&lt;Group&gt;">
						<path id="&lt;Path&gt;" fill-rule="evenodd" class="s5" d="m292.12 394.89c-12.32 0.01-22.3-9.94-22.31-22.27-0.02-12.33 9.94-22.3 22.26-22.32 12.33-0.01 22.31 9.94 22.32 22.27 0.02 12.33-9.94 22.31-22.27 22.32z"/>
						<path id="&lt;Path&gt;" fill-rule="evenodd" class="s5" d="m292.03 361.8l0.02 21.59-65.6 0.08-0.03-21.6z"/>
					</g>
					<g id="&lt;Group&gt;">
						<path id="&lt;Path&gt;" fill-rule="evenodd" class="s5" d="m308.8 320.59c-12.33 0.02-22.3-9.94-22.32-22.26-0.01-12.33 9.94-22.31 22.27-22.32 12.33-0.02 22.31 9.94 22.32 22.27 0.01 12.32-9.94 22.3-22.27 22.31z"/>
						<path id="&lt;Path&gt;" fill-rule="evenodd" class="s5" d="m319.52 226.52l0.07 57.46-21.6 0.02-0.06-57.46z"/>
					</g>
					<g id="&lt;Group&gt;">
						<path id="&lt;Path&gt;" fill-rule="evenodd" class="s5" d="m521.1 679.91c-12.33 0.01-22.31-9.94-22.32-22.27-0.02-12.33 9.94-22.3 22.27-22.32 12.32-0.01 22.3 9.94 22.31 22.27 0.02 12.33-9.94 22.31-22.26 22.32z"/>
						<path id="&lt;Path&gt;" class="s5" d="m603.43 646.67l0.11 98.78-21.67 0.03-0.09-77.12-55.3 0.07-0.02-21.67z"/>
					</g>
				</g>
			</g>
			<text id="RAGE" style="transform: matrix(5.801,-0.007,.007,5.801,300.368,459.727)">
				<tspan x="0" y="0" class="t6">R</tspan><tspan  y="0" class="t6">A</tspan><tspan  y="0" class="t6">G</tspan><tspan  y="0" class="t6">E
</tspan>
			</text>
			<text id="COMPUTER" style="transform: matrix(6.999,-0.008,.008,6.999,261.825,527.215)">
				<tspan x="0" y="0" class="t7">C</tspan><tspan  y="0" class="t7">O</tspan><tspan  y="0" class="t7">M</tspan><tspan  y="0" class="t7">P</tspan><tspan  y="0" class="t7">U</tspan><tspan  y="0" class="t7">T</tspan><tspan  y="0" class="t7">E</tspan><tspan  y="0" class="t7">R
</tspan>
			</text>
			<text id="BALI" style="transform: matrix(6.999,-0.008,.008,6.999,387.903,597.073)">
				<tspan x="0" y="0" class="t7">B</tspan><tspan  y="0" class="t7">A</tspan><tspan  y="0" class="t7">L</tspan><tspan  y="0" class="t7">I
</tspan>
			</text>
			<g id="&lt;Group&gt;" style="opacity: .2">
				<path id="&lt;Path&gt;" class="s8" d="m581.81 226.22l-6.04 16.07-29.13 77.6-9.76 26.01-77.4 206.18-6.78 18.02-8.35 22.12-8.79 23.48-43.81 116.69-4.99 13.31-115.67 0.13c-24.44 0.03-44.26-19.75-44.29-44.19l-0.48-430.71c-0.03-24.51 19.75-44.33 44.19-44.36z"/>
			</g>
			<g id="&lt;Group&gt;" style="opacity: .2">
				<path id="&lt;Path&gt;" class="s8" d="m745.58 271.47l0.13 117.17-134.03 356.81-112.61 0.12 195.12-519.47 5.9-0.01c25.11-0.03 45.46 20.27 45.49 45.38z"/>
			</g>
			<g id="&lt;Group&gt;">
				<path id="&lt;Path&gt;" fill-rule="evenodd" class="s2" d="m275.46 287.43c-6.49 0-11.74-5.24-11.75-11.73-0.01-6.49 5.23-11.74 11.72-11.75 6.49-0.01 11.75 5.23 11.75 11.72 0.01 6.5-5.23 11.75-11.72 11.76z"/>
			</g>
			<g id="&lt;Group&gt;">
				<path id="&lt;Path&gt;" fill-rule="evenodd" class="s2" d="m275.93 708.44c-6.49 0.01-11.74-5.24-11.75-11.73 0-6.49 5.24-11.74 11.73-11.75 6.49 0 11.74 5.24 11.75 11.73 0 6.49-5.24 11.74-11.73 11.75z"/>
			</g>
			<g id="&lt;Group&gt;">
				<path id="&lt;Path&gt;" fill-rule="evenodd" class="s2" d="m696.47 286.95c-6.49 0.01-11.74-5.23-11.75-11.72-0.01-6.49 5.24-11.75 11.73-11.75 6.49-0.01 11.74 5.23 11.75 11.72 0 6.49-5.24 11.74-11.73 11.75z"/>
			</g>
			<g id="&lt;Group&gt;">
				<path id="&lt;Path&gt;" fill-rule="evenodd" class="s2" d="m696.95 707.96c-6.49 0.01-11.75-5.23-11.75-11.72-0.01-6.49 5.23-11.74 11.72-11.75 6.49-0.01 11.74 5.23 11.75 11.72 0.01 6.49-5.23 11.75-11.72 11.75z"/>
			</g>
		</g>
	</g>
	<text id="RAGE BALI" style="transform: matrix(1.264,-0.001,.001,1.264,1065.202,597.287)">
		<tspan x="0" y="0" class="t9">R</tspan><tspan  y="0" class="t9">A</tspan><tspan  y="0" class="t9">G</tspan><tspan  y="0" class="t9">E</tspan><tspan  y="0" class="t9"> </tspan><tspan  y="0" class="t9">B</tspan><tspan  y="0" class="t9">A</tspan><tspan  y="0" class="t9">L</tspan><tspan  y="0" class="t9">I
</tspan>
	</text>
</svg>